# xmcd
#
# Track frame offsets:
#	150
#	41369
#	59041
#	74946
#	94725
#	119750
#	125391
#	144924
#	159863
#	171052
#	180857
#	214222
#	228696
#	250878
#	268363
#
# Disc length: 3782
#
# Revision: 1
# Processed by: cddbd v1.5.1PL0 Copyright (c) Steve Scherf et al.
# Submitted via: CDex 1.51
# Normalized: r0:DSETVAR1,TDELIM( - )
#
DISCID=e30ec40f
DTITLE=Various Artist - Carl Cox F.A.C.T. 2
DYEAR=1900
DGENRE=New Age
TTITLE0=Modwheel - Spirit Catcher
TTITLE1=Rob Tissera - Kick Up The Volume (Latin Love Machine Mix)
TTITLE2=Josh Wink - Are You There
TTITLE3=Electroliners - Loose Caboose (Carl Cox Mix)
TTITLE4=Fatboy Slim - Everybody Needs a 303
TTITLE5=Cajmere - Only 4 U (Green Velvet Mix)
TTITLE6=Purveyors of Fine Funk - Hot
TTITLE7=Primodial Soup - Computer Talk
TTITLE8=Freaky Chakra vs Single Cell Orchestra - I Want To Fall
TTITLE9=Carl Cox - Tribal Jedi (Slam Black Drum Mix)
TTITLE10=Envoy - Dark Manoeuvres
TTITLE11=Green Velvet - The Stalker (Laidback Luke Mix)
TTITLE12=DJ HMC - LSD
TTITLE13=Continous Cool - Manual
TTITLE14=Kosmic Messenger - Flash
EXTD=
EXTT0=
EXTT1=
EXTT2=
EXTT3=
EXTT4=
EXTT5=
EXTT6=
EXTT7=
EXTT8=
EXTT9=
EXTT10=
EXTT11=
EXTT12=
EXTT13=
EXTT14=
PLAYORDER=
